<svg xmlns="http://www.w3.org/2000/svg" viewBox="0 0 45 45"><path fill="#8fcc99" fill-rule="evenodd" d="M39.75 28.88Q40.06 28.56 39.88 28.19Q39.69 27.81 38.62 27.06Q37.56 26.31 36.38 25.75Q35.19 25.19 34.50 25.06Q33.81 24.94 33.12 24.50Q32.44 24.06 32.06 24.06Q31.69 24.06 30.94 23.56Q30.19 23.06 28.12 22.44Q26.06 21.81 25.69 21.44Q25.31 21.06 25.31 20.75Q25.31 20.44 25.56 20.19Q25.81 19.94 27.62 19.44Q29.44 18.94 30.00 18.44Q30.56 17.94 31.62 17.88Q32.69 17.81 33.69 18.38Q34.69 18.94 35.69 18.81Q36.69 18.69 36.56 18.38Q36.44 18.06 34.50 17.31Q32.56 16.56 32.75 15.00Q32.94 13.44 32.62 13.12Q32.31 12.81 31.88 12.81Q31.44 12.81 31.06 13.19Q30.69 13.56 30.12 14.81Q29.56 16.06 28.62 16.00Q27.69 15.94 27.19 16.19Q26.69 16.44 25.44 16.00Q24.19 15.56 23.38 15.56Q22.56 15.56 22.00 15.75Q21.44 15.94 19.81 15.94Q18.19 15.94 17.00 16.50Q15.81 17.06 13.50 16.06Q11.19 15.06 9.81 14.94Q8.44 14.81 8.19 15.25Q7.94 15.69 9.19 16.56Q10.44 17.44 10.50 17.94Q10.56 18.44 10.25 18.69Q9.94 18.94 9.12 19.06Q8.31 19.19 8.25 19.62Q8.19 20.06 8.75 20.88Q9.31 21.69 10.38 21.88Q11.44 22.06 11.62 22.38Q11.81 22.69 10.00 23.12Q8.19 23.56 6.38 23.75Q4.56 23.94 4.19 24.19Q3.81 24.44 3.94 25.06Q4.06 25.69 5.38 26.06Q6.69 26.44 7.88 26.44Q9.06 26.44 11.88 25.94Q14.69 25.44 15.56 25.44Q16.44 25.44 18.88 24.62Q21.31 23.81 23.00 24.56Q24.69 25.31 24.56 25.56Q24.44 25.81 23.94 25.75Q23.44 25.69 22.50 25.94Q21.56 26.19 20.19 26.12Q18.81 26.06 16.81 27.00Q14.81 27.94 12.69 28.25Q10.56 28.56 9.69 29.06Q8.81 29.56 8.88 30.06Q8.94 30.56 9.25 30.75Q9.56 30.94 11.75 31.06Q13.94 31.19 15.81 31.00Q17.69 30.81 18.75 30.44Q19.81 30.06 20.56 30.00Q21.31 29.94 23.81 28.88Q26.31 27.81 27.50 27.00Q28.69 26.19 32.19 27.50Q35.69 28.81 37.56 29.00Q39.44 29.19 39.75 28.88Z"/></svg>