<svg xmlns="http://www.w3.org/2000/svg" viewBox="0 0 54 54"><path fill="#8fcc99" fill-rule="evenodd" d="M44.38 25.75Q44.69 25.44 44.50 25.19Q44.31 24.94 43.31 24.81Q42.31 24.69 41.31 24.06Q40.31 23.44 40.44 21.62Q40.56 19.81 40.12 18.94Q39.69 18.06 38.81 18.75Q37.94 19.44 37.44 20.50Q36.94 21.56 36.12 22.25Q35.31 22.94 33.06 22.50Q30.81 22.06 30.19 21.56Q29.56 21.06 28.94 21.06Q28.31 21.06 27.56 20.62Q26.81 20.19 26.12 20.19Q25.44 20.19 24.25 21.06Q23.06 21.94 21.62 21.75Q20.19 21.56 19.12 21.81Q18.06 22.06 16.75 21.25Q15.44 20.44 15.06 20.69Q14.69 20.94 13.44 20.69Q12.19 20.44 12.06 20.94Q11.94 21.44 13.06 21.94Q14.19 22.44 14.62 22.94Q15.06 23.44 15.06 24.12Q15.06 24.81 14.56 25.25Q14.06 25.69 14.00 26.06Q13.94 26.44 13.06 26.94Q12.19 27.44 12.06 27.88Q11.94 28.31 12.12 28.62Q12.31 28.94 14.31 29.00Q16.31 29.06 16.62 28.88Q16.94 28.69 16.94 28.50Q16.94 28.31 16.12 27.69Q15.31 27.06 15.12 26.62Q14.94 26.19 14.94 25.69Q14.94 25.19 15.81 25.00Q16.69 24.81 17.19 25.19Q17.69 25.56 17.88 26.56Q18.06 27.56 18.56 27.62Q19.06 27.69 20.19 27.38Q21.31 27.06 21.69 27.38Q22.06 27.69 22.12 28.12Q22.19 28.56 21.56 29.69Q20.94 30.81 20.62 31.06Q20.31 31.31 16.12 31.44Q11.94 31.56 11.62 31.69Q11.31 31.81 11.06 32.25Q10.81 32.69 10.94 33.00Q11.06 33.31 11.81 33.94Q12.56 34.56 12.94 34.50Q13.31 34.44 14.06 34.75Q14.81 35.06 16.69 35.31Q18.56 35.56 19.69 35.56Q20.81 35.56 23.56 35.25Q26.31 34.94 28.62 34.38Q30.94 33.81 32.06 33.25Q33.19 32.69 33.69 32.19Q34.19 31.69 33.94 31.31Q33.69 30.94 29.00 31.06Q24.31 31.19 24.06 30.88Q23.81 30.56 23.94 30.00Q24.06 29.44 25.25 28.31Q26.44 27.19 26.88 27.19Q27.31 27.19 28.00 27.50Q28.69 27.81 32.06 28.25Q35.44 28.69 35.75 29.00Q36.06 29.31 35.81 30.81Q35.56 32.31 35.31 32.69Q35.06 33.06 34.06 33.75Q33.06 34.44 33.06 34.69Q33.06 34.94 33.62 35.44Q34.19 35.94 35.94 35.94Q37.69 35.94 37.94 35.75Q38.19 35.56 38.25 35.12Q38.31 34.69 37.56 33.31Q36.81 31.94 36.94 31.31Q37.06 30.69 37.38 30.31Q37.69 29.94 38.31 29.75Q38.94 29.56 41.44 29.94Q43.94 30.31 44.31 30.06Q44.69 29.81 44.69 29.62Q44.69 29.44 43.00 28.75Q41.31 28.06 38.50 27.56Q35.69 27.06 35.44 26.56Q35.19 26.06 35.38 25.88Q35.56 25.69 36.06 25.75Q36.56 25.81 37.75 25.56Q38.94 25.31 40.00 25.31Q41.06 25.31 41.81 25.62Q42.56 25.94 43.31 26.00Q44.06 26.06 44.38 25.75Z"/></svg>