<svg xmlns="http://www.w3.org/2000/svg" viewBox="0 0 32 32"><path d="M3 12L21 13 29 8V26L21 30 3 28Z" fill="#555759" stroke="#443522" stroke-width=".8" /><path d="M21 13L29 8V26L21 30Z" fill="#333a38" /><path d="M3 12L10 5 28 7 29 10 21 16 3 15Z" fill="#555759" stroke="#594025" stroke-width=".8" /><path d="M3 15L21 17 29 12M4 25L21 27M8 17V27M15 18V28" fill="none" stroke="#333a38" stroke-width=".6" /><path d="M22 14V28L25 26V12L13 7 11 9Z" fill="#ba5de0" /><path d="M17 8Q8 3 11 4Q15 3.5 19 8Q23 3.5 26 6Q28 9 20 9" fill="none" stroke="#ba5de0" stroke-width="1.3" stroke-linejoin="round" /><path d="M4 21L7 21 7 27 12 28M17 25V28H20" fill="none" stroke="#d5bb67" stroke-width="1.6" /></svg>
