<svg xmlns="http://www.w3.org/2000/svg" viewBox="0 0 32 32"><defs><linearGradient id="face" x1="0" y1="0" x2=".8" y2="1"><stop stop-color="#c33529" /><stop offset=".55" stop-color="#c33529" /><stop offset="1" stop-color="#e55036" /></linearGradient><linearGradient id="lid"><stop stop-color="#e55036" /><stop offset=".48" stop-color="#c33529" /><stop offset="1" stop-color="#81251c" /></linearGradient><linearGradient id="cord"><stop stop-color="#cf9d43" /><stop offset=".4" stop-color="#ffe69d" /><stop offset=".65" stop-color="#cf9d43" /><stop offset="1" stop-color="#cf9d43" /></linearGradient></defs><path d="M4 12L22 13 29 8V25Q26 27 22 28.8L4.5 28Q3.5 27.8 3.5 26.5V15Z" fill="url(#face)" stroke="#332d21" stroke-width=".7" stroke-linejoin="round" /><path d="M22 13L29 8V25L22 28.8Z" fill="#81251c" /><path d="M3.5 10.5L11 5 28.7 6 29.3 10.5 22.6 15.2 3.3 14.3Z" fill="url(#lid)" stroke="#332d21" stroke-width=".7" stroke-linejoin="round" /><path d="M3.5 10.5Q12 9.9 22.9 11.6L29 6.2M22.9 11.6L22.6 15.2Q12 13.7 3.3 14.3" fill="none" stroke="#241f19" stroke-width=".65" /><path d="M4.1 10.8Q11.7 10.4 21.8 11.8" fill="none" stroke="#ffe69d" stroke-width=".4" opacity=".8" /><g fill="none" stroke="#f4ca72" stroke-width=".25" stroke-linecap="round"><path d="M6 27Q11 23 14 27M14 28Q18 25 20 20M18 27L21 24M24 25L27 21M8 13L12 12" /></g><g fill="#f4ca72" opacity=".85"><path d="M19 26Q15 24 15.8 21L17.5 22 18 20Q21.5 20 22 23Z" /><path d="M9 26Q5 25.5 5.5 23L7.2 23.8 8 22.5Q10 23 10.5 24.5Z" /><path d="M13.6 27Q10.3 25 11.7 23.5L13 24.4 14 23.6 15 25.1Z" /><path d="M26.4 23Q23.4 22 23.8 19.4L25.1 20 25.4 18.8 27.3 20Z" /><path d="M26.3 14.7L28.1 12.5 28.4 14.4 27.3 16Z" /></g><g fill="none" stroke="#ffe6a0" stroke-width=".2" opacity=".85"><path d="M19 26L16.5 22M19 26L18.5 21M19 26L21.3 22.5M9 26L6.2 23.8M9 26L8.2 23.5M13.6 27L12 24.3M26.4 23L24.5 20.2M26.4 23L26 20" /></g><g fill="#ffe6a0"><ellipse cx="17.8" cy="18.7" rx=".45" ry=".65" transform="rotate(30 17.8 18.7)" /><ellipse cx="20.3" cy="17.3" rx=".25" ry=".45" /><ellipse cx="12.8" cy="12.5" rx=".4" ry=".25" /><ellipse cx="15" cy="12.9" rx=".25" ry=".35" /><ellipse cx="19.7" cy="13.2" rx=".35" ry=".25" /></g><g><path d="M17.1 6.5L9.2 7.7 5.2 10.4 5.3 27.9 7 28 6.9 11.4 10 9.1 17.4 7.9Z" fill="url(#cord)" stroke="#cf9d43" stroke-width=".25" stroke-linejoin="round" /><path d="M16 7.2L9.6 8.4 6.1 10.9 6.2 26.8" fill="none" stroke="#ffe69d" stroke-width=".35" stroke-linejoin="round" /></g><path d="M15 6.4L24.4 10.9 24.2 27.7 26.6 26.7 26.8 9.4 18 5.2Z" fill="url(#cord)" stroke="#cf9d43" stroke-width=".25" /><path d="M17.2 7.2C14.5 4.1 9.2 3.5 8 5.7 7 7.3 12.4 7.4 17.2 7.2C20 4.8 24.3 5.1 25 7.4 25.5 9 20.4 9 17.2 7.2Z" fill="none" stroke="#cf9d43" stroke-width="1.45" stroke-linecap="round" stroke-linejoin="round" /><path d="M8.5 5.6Q11 4.2 15.9 6.9M18.2 7.1Q22.1 5.8 23.8 7.4M25.3 12L25.1 25.8" fill="none" stroke="#ffe69d" stroke-width=".4" stroke-linecap="round" /><ellipse cx="17.1" cy="7.2" rx="1.1" ry=".65" fill="#ffe69d" stroke="#cf9d43" stroke-width=".5" /></svg>
