<svg xmlns="http://www.w3.org/2000/svg" viewBox="0 0 32 32"><defs><linearGradient id="bucket"><stop stop-color="#849514"/><stop offset=".35" stop-color="#e5f263"/><stop offset=".68" stop-color="#bed131"/><stop offset="1" stop-color="#708515"/></linearGradient><linearGradient id="water" x1="0" y1="0" x2="0" y2="1"><stop stop-color="#01c4cf"/><stop offset=".5" stop-color="#24d6df"/><stop offset="1" stop-color="#a7f5f2"/></linearGradient></defs><path d="M5 8.5L7.5 25.8C8 30.1 24 30.1 24.8 25.8L27 8.5Z" fill="url(#bucket)" stroke="#6d8016" stroke-width=".7"/><path d="M8.1 13L9.5 25.2" stroke="#edf891" stroke-width="1" opacity=".6"/><ellipse cx="16" cy="8.6" rx="11" ry="4.7" fill="#4d6313" stroke="#b9ce34" stroke-width="1.2"/><path d="M6.9 9.2C8 5.1 24 5.1 25.1 9.2C25.3 10.5 23.3 11 22.8 11.6C22.1 12.4 24.5 13.9 22.8 15.1C21.6 16 20.5 14.4 19.8 14.6C18.2 15.2 18.6 12.3 16.7 12C12.7 12.1 8.7 11.6 6.9 9.2Z" fill="url(#water)" stroke="#43a8a2" stroke-width=".45"/><path d="M8.4 8.1C12 6.3 20.6 6.3 23 8.1M17.8 11.1C20.8 10.6 22.5 11.4 21.4 12.7" fill="none" stroke="#e4ffff" stroke-width="1.1" stroke-linecap="round"/><path d="M5.5 9.7C6.9 12 12.3 13.2 16.7 12.9M24 12C25.2 11.5 26.1 10.8 26.5 9.8" fill="none" stroke="#d2df45" stroke-width=".9"/></svg>
